STARTFONT 2.1
FONT Lstar_6x2x1
SIZE 16 72 72
FONTBOUNDINGBOX 8 16 0 0
SWIDTH 8000 0
DWIDTH 8 0
STARTPROPERTIES 2
FAMILY_NAME Lstar_6x2x1
FONT_ASCENT 16
FONT_DESCENT 0
ENDPROPERTIES
CHARS 312
STARTCHAR U+25BA
ENCODING 9658
SWIDTH 8000 0
DWIDTH 8 0
BBX 8 16 0
BITMAP
00
00
00
00
00
00
1F
1F
18
18
18
18
18
18
18
18
ENDCHAR
STARTCHAR U+25C4
ENCODING 9668
SWIDTH 8000 0
DWIDTH 8 0
BBX 8 16 0
BITMAP
00
00
00
00
00
00
FF
FF
18
18
18
18
18
18
18
18
ENDCHAR
STARTCHAR U+2195
ENCODING 8597
SWIDTH 8000 0
DWIDTH 8 0
BBX 8 16 0
BITMAP
00
00
00
00
00
00
F8
F8
18
18
18
18
18
18
18
18
ENDCHAR
STARTCHAR U+203C
ENCODING 8252
SWIDTH 8000 0
DWIDTH 8 0
BBX 8 16 0
BITMAP
18
18
18
18
18
18
1F
1F
18
18
18
18
18
18
18
18
ENDCHAR
STARTCHAR U+00B6
ENCODING 182
SWIDTH 8000 0
DWIDTH 8 0
BBX 8 16 0
BITMAP
18
18
18
18
18
18
FF
FF
18
18
18
18
18
18
18
18
ENDCHAR
STARTCHAR U+00A7
ENCODING 167
SWIDTH 8000 0
DWIDTH 8 0
BBX 8 16 0
BITMAP
18
18
18
18
18
18
F8
F8
18
18
18
18
18
18
18
18
ENDCHAR
STARTCHAR U+25AC
ENCODING 9644
SWIDTH 8000 0
DWIDTH 8 0
BBX 8 16 0
BITMAP
18
18
18
18
18
18
1F
1F
00
00
00
00
00
00
00
00
ENDCHAR
STARTCHAR U+21A8
ENCODING 8616
SWIDTH 8000 0
DWIDTH 8 0
BBX 8 16 0
BITMAP
18
18
18
18
18
18
FF
FF
00
00
00
00
00
00
00
00
ENDCHAR
STARTCHAR U+2191
ENCODING 8593
SWIDTH 8000 0
DWIDTH 8 0
BBX 8 16 0
BITMAP
18
18
18
18
18
18
F8
F8
00
00
00
00
00
00
00
00
ENDCHAR
STARTCHAR U+2193
ENCODING 8595
SWIDTH 8000 0
DWIDTH 8 0
BBX 8 16 0
BITMAP
00
00
00
00
00
00
FF
FF
00
00
00
00
00
00
00
00
ENDCHAR
STARTCHAR U+2192
ENCODING 8594
SWIDTH 8000 0
DWIDTH 8 0
BBX 8 16 0
BITMAP
18
18
18
18
18
18
18
18
18
18
18
18
18
18
18
18
ENDCHAR
STARTCHAR U+2190
ENCODING 8592
SWIDTH 8000 0
DWIDTH 8 0
BBX 8 16 0
BITMAP
00
00
00
C0
F0
FC
FF
FF
FC
F0
C0
00
00
00
00
00
ENDCHAR
STARTCHAR U+221F
ENCODING 8735
SWIDTH 8000 0
DWIDTH 8 0
BBX 8 16 0
BITMAP
00
00
00
03
0F
3F
FF
FF
3F
0F
03
00
00
00
00
00
ENDCHAR
STARTCHAR U+2194
ENCODING 8596
SWIDTH 8000 0
DWIDTH 8 0
BBX 8 16 0
BITMAP
18
18
3C
3C
7E
7E
FF
FF
18
18
18
18
18
18
18
18
ENDCHAR
STARTCHAR U+25B2
ENCODING 9650
SWIDTH 8000 0
DWIDTH 8 0
BBX 8 16 0
BITMAP
18
18
18
18
18
18
18
18
FF
FF
7E
7E
3C
3C
18
18
ENDCHAR
STARTCHAR U+25BC
ENCODING 9660
SWIDTH 8000 0
DWIDTH 8 0
BBX 8 16 0
BITMAP
FE
FE
FE
FE
FE
FE
FE
FE
FE
FE
FE
FE
FE
FE
FE
FE
ENDCHAR
STARTCHAR U+0020
ENCODING 32
SWIDTH 8000 0
DWIDTH 8 0
BBX 8 16 0
BITMAP
00
00
00
00
00
00
00
00
00
00
00
00
00
00
00
00
ENDCHAR
STARTCHAR U+0021
ENCODING 33
SWIDTH 8000 0
DWIDTH 8 0
BBX 8 16 0
BITMAP
00
00
00
00
10
10
10
10
10
00
00
10
10
00
00
00
ENDCHAR
STARTCHAR U+0022
ENCODING 34
SWIDTH 8000 0
DWIDTH 8 0
BBX 8 16 0
BITMAP
00
00
00
00
6C
24
48
00
00
00
00
00
00
00
00
00
ENDCHAR
STARTCHAR U+0023
ENCODING 35
SWIDTH 8000 0
DWIDTH 8 0
BBX 8 16 0
BITMAP
00
00
00
00
00
28
28
7C
28
7C
28
28
00
00
00
00
ENDCHAR
STARTCHAR U+0024
ENCODING 36
SWIDTH 8000 0
DWIDTH 8 0
BBX 8 16 0
BITMAP
00
00
00
00
10
3C
50
50
38
14
14
78
10
00
00
00
ENDCHAR
STARTCHAR U+0025
ENCODING 37
SWIDTH 8000 0
DWIDTH 8 0
BBX 8 16 0
BITMAP
00
00
00
00
20
52
24
08
10
20
48
94
08
00
00
00
ENDCHAR
STARTCHAR U+0026
ENCODING 38
SWIDTH 8000 0
DWIDTH 8 0
BBX 8 16 0
BITMAP
00
00
00
00
20
50
50
50
20
54
88
94
62
00
00
00
ENDCHAR
STARTCHAR U+0027
ENCODING 39
SWIDTH 8000 0
DWIDTH 8 0
BBX 8 16 0
BITMAP
00
00
00
00
18
08
10
00
00
00
00
00
00
00
00
00
ENDCHAR
STARTCHAR U+0028
ENCODING 40
SWIDTH 8000 0
DWIDTH 8 0
BBX 8 16 0
BITMAP
00
00
00
00
0C
10
20
40
40
40
20
10
0C
00
00
00
ENDCHAR
STARTCHAR U+0029
ENCODING 41
SWIDTH 8000 0
DWIDTH 8 0
BBX 8 16 0
BITMAP
00
00
00
00
60
10
08
04
04
04
08
10
60
00
00
00
ENDCHAR
STARTCHAR U+002A
ENCODING 42
SWIDTH 8000 0
DWIDTH 8 0
BBX 8 16 0
BITMAP
00
00
00
00
00
10
92
54
38
54
92
10
00
00
00
00
ENDCHAR
STARTCHAR U+002B
ENCODING 43
SWIDTH 8000 0
DWIDTH 8 0
BBX 8 16 0
BITMAP
00
00
00
00
00
10
10
10
FE
10
10
10
00
00
00
00
ENDCHAR
STARTCHAR U+002C
ENCODING 44
SWIDTH 8000 0
DWIDTH 8 0
BBX 8 16 0
BITMAP
00
00
00
00
00
00
00
00
00
00
00
30
10
20
00
00
ENDCHAR
STARTCHAR U+002D
ENCODING 45
SWIDTH 8000 0
DWIDTH 8 0
BBX 8 16 0
BITMAP
00
00
00
00
00
00
00
00
7C
00
00
00
00
00
00
00
ENDCHAR
STARTCHAR U+002E
ENCODING 46
SWIDTH 8000 0
DWIDTH 8 0
BBX 8 16 0
BITMAP
00
00
00
00
00
00
00
00
00
00
00
10
10
00
00
00
ENDCHAR
STARTCHAR U+002F
ENCODING 47
SWIDTH 8000 0
DWIDTH 8 0
BBX 8 16 0
BITMAP
00
00
00
00
04
04
08
08
10
20
20
40
40
00
00
00
ENDCHAR
STARTCHAR U+0030
ENCODING 48
SWIDTH 8000 0
DWIDTH 8 0
BBX 8 16 0
BITMAP
00
00
00
00
38
44
44
4C
54
64
44
44
38
00
00
00
ENDCHAR
STARTCHAR U+0031
ENCODING 49
SWIDTH 8000 0
DWIDTH 8 0
BBX 8 16 0
BITMAP
00
00
00
00
10
30
10
10
10
10
10
10
7C
00
00
00
ENDCHAR
STARTCHAR U+0032
ENCODING 50
SWIDTH 8000 0
DWIDTH 8 0
BBX 8 16 0
BITMAP
00
00
00
00
38
44
44
04
08
10
20
40
7C
00
00
00
ENDCHAR
STARTCHAR U+0033
ENCODING 51
SWIDTH 8000 0
DWIDTH 8 0
BBX 8 16 0
BITMAP
00
00
00
00
38
44
44
04
18
04
44
44
38
00
00
00
ENDCHAR
STARTCHAR U+0034
ENCODING 52
SWIDTH 8000 0
DWIDTH 8 0
BBX 8 16 0
BITMAP
00
00
00
00
08
18
28
28
48
48
48
7C
08
00
00
00
ENDCHAR
STARTCHAR U+0035
ENCODING 53
SWIDTH 8000 0
DWIDTH 8 0
BBX 8 16 0
BITMAP
00
00
00
00
7C
40
40
40
78
04
04
44
38
00
00
00
ENDCHAR
STARTCHAR U+0036
ENCODING 54
SWIDTH 8000 0
DWIDTH 8 0
BBX 8 16 0
BITMAP
00
00
00
00
38
44
40
40
78
44
44
44
38
00
00
00
ENDCHAR
STARTCHAR U+0037
ENCODING 55
SWIDTH 8000 0
DWIDTH 8 0
BBX 8 16 0
BITMAP
00
00
00
00
7C
44
04
08
10
10
10
10
10
00
00
00
ENDCHAR
STARTCHAR U+0038
ENCODING 56
SWIDTH 8000 0
DWIDTH 8 0
BBX 8 16 0
BITMAP
00
00
00
00
38
44
44
44
38
44
44
44
38
00
00
00
ENDCHAR
STARTCHAR U+0039
ENCODING 57
SWIDTH 8000 0
DWIDTH 8 0
BBX 8 16 0
BITMAP
00
00
00
00
38
44
44
44
3C
04
04
44
38
00
00
00
ENDCHAR
STARTCHAR U+003A
ENCODING 58
SWIDTH 8000 0
DWIDTH 8 0
BBX 8 16 0
BITMAP
00
00
00
00
00
00
10
00
00
00
10
00
00
00
00
00
ENDCHAR
STARTCHAR U+003B
ENCODING 59
SWIDTH 8000 0
DWIDTH 8 0
BBX 8 16 0
BITMAP
00
00
00
00
00
00
18
00
00
18
08
10
00
00
00
00
ENDCHAR
STARTCHAR U+003C
ENCODING 60
SWIDTH 8000 0
DWIDTH 8 0
BBX 8 16 0
BITMAP
00
00
00
00
04
08
10
20
40
20
10
08
04
00
00
00
ENDCHAR
STARTCHAR U+003D
ENCODING 61
SWIDTH 8000 0
DWIDTH 8 0
BBX 8 16 0
BITMAP
00
00
00
00
00
00
00
7C
00
7C
00
00
00
00
00
00
ENDCHAR
STARTCHAR U+003E
ENCODING 62
SWIDTH 8000 0
DWIDTH 8 0
BBX 8 16 0
BITMAP
00
00
00
00
40
20
10
08
04
08
10
20
40
00
00
00
ENDCHAR
STARTCHAR U+003F
ENCODING 63
SWIDTH 8000 0
DWIDTH 8 0
BBX 8 16 0
BITMAP
00
00
00
00
38
44
44
04
08
10
10
00
10
00
00
00
ENDCHAR
STARTCHAR U+0040
ENCODING 64
SWIDTH 8000 0
DWIDTH 8 0
BBX 8 16 0
BITMAP
00
00
00
00
38
44
54
54
54
58
50
40
3C
00
00
00
ENDCHAR
STARTCHAR U+0041
ENCODING 65
SWIDTH 8000 0
DWIDTH 8 0
BBX 8 16 0
BITMAP
00
00
00
00
10
28
44
44
44
7C
44
44
44
00
00
00
ENDCHAR
STARTCHAR U+0042
ENCODING 66
SWIDTH 8000 0
DWIDTH 8 0
BBX 8 16 0
BITMAP
00
00
00
00
78
44
44
44
78
44
44
44
78
00
00
00
ENDCHAR
STARTCHAR U+0043
ENCODING 67
SWIDTH 8000 0
DWIDTH 8 0
BBX 8 16 0
BITMAP
00
00
00
00
38
44
44
40
40
40
44
44
38
00
00
00
ENDCHAR
STARTCHAR U+0044
ENCODING 68
SWIDTH 8000 0
DWIDTH 8 0
BBX 8 16 0
BITMAP
00
00
00
00
78
44
44
44
44
44
44
44
78
00
00
00
ENDCHAR
STARTCHAR U+0045
ENCODING 69
SWIDTH 8000 0
DWIDTH 8 0
BBX 8 16 0
BITMAP
00
00
00
00
7C
40
40
40
78
40
40
40
7C
00
00
00
ENDCHAR
STARTCHAR U+0046
ENCODING 70
SWIDTH 8000 0
DWIDTH 8 0
BBX 8 16 0
BITMAP
00
00
00
00
7C
40
40
40
78
40
40
40
40
00
00
00
ENDCHAR
STARTCHAR U+0047
ENCODING 71
SWIDTH 8000 0
DWIDTH 8 0
BBX 8 16 0
BITMAP
00
00
00
00
38
44
44
40
5C
44
44
44
38
00
00
00
ENDCHAR
STARTCHAR U+0048
ENCODING 72
SWIDTH 8000 0
DWIDTH 8 0
BBX 8 16 0
BITMAP
00
00
00
00
44
44
44
44
7C
44
44
44
44
00
00
00
ENDCHAR
STARTCHAR U+0049
ENCODING 73
SWIDTH 8000 0
DWIDTH 8 0
BBX 8 16 0
BITMAP
00
00
00
00
38
10
10
10
10
10
10
10
38
00
00
00
ENDCHAR
STARTCHAR U+004A
ENCODING 74
SWIDTH 8000 0
DWIDTH 8 0
BBX 8 16 0
BITMAP
00
00
00
00
04
04
04
04
04
44
44
44
38
00
00
00
ENDCHAR
STARTCHAR U+004B
ENCODING 75
SWIDTH 8000 0
DWIDTH 8 0
BBX 8 16 0
BITMAP
00
00
00
00
44
44
48
50
60
50
48
44
44
00
00
00
ENDCHAR
STARTCHAR U+004C
ENCODING 76
SWIDTH 8000 0
DWIDTH 8 0
BBX 8 16 0
BITMAP
00
00
00
00
40
40
40
40
40
40
40
40
7C
00
00
00
ENDCHAR
STARTCHAR U+004D
ENCODING 77
SWIDTH 8000 0
DWIDTH 8 0
BBX 8 16 0
BITMAP
00
00
00
00
44
6C
54
54
54
54
44
44
44
00
00
00
ENDCHAR
STARTCHAR U+004E
ENCODING 78
SWIDTH 8000 0
DWIDTH 8 0
BBX 8 16 0
BITMAP
00
00
00
00
44
64
54
54
54
54
4C
44
44
00
00
00
ENDCHAR
STARTCHAR U+004F
ENCODING 79
SWIDTH 8000 0
DWIDTH 8 0
BBX 8 16 0
BITMAP
00
00
00
00
38
44
44
44
44
44
44
44
38
00
00
00
ENDCHAR
STARTCHAR U+0050
ENCODING 80
SWIDTH 8000 0
DWIDTH 8 0
BBX 8 16 0
BITMAP
00
00
00
00
78
44
44
44
78
40
40
40
40
00
00
00
ENDCHAR
STARTCHAR U+0051
ENCODING 81
SWIDTH 8000 0
DWIDTH 8 0
BBX 8 16 0
BITMAP
00
00
00
00
38
44
44
44
44
54
54
48
34
00
00
00
ENDCHAR
STARTCHAR U+0052
ENCODING 82
SWIDTH 8000 0
DWIDTH 8 0
BBX 8 16 0
BITMAP
00
00
00
00
78
44
44
44
78
50
48
44
44
00
00
00
ENDCHAR
STARTCHAR U+0053
ENCODING 83
SWIDTH 8000 0
DWIDTH 8 0
BBX 8 16 0
BITMAP
00
00
00
00
38
44
40
40
38
04
04
44
38
00
00
00
ENDCHAR
STARTCHAR U+0054
ENCODING 84
SWIDTH 8000 0
DWIDTH 8 0
BBX 8 16 0
BITMAP
00
00
00
00
7C
10
10
10
10
10
10
10
10
00
00
00
ENDCHAR
STARTCHAR U+0055
ENCODING 85
SWIDTH 8000 0
DWIDTH 8 0
BBX 8 16 0
BITMAP
00
00
00
00
44
44
44
44
44
44
44
44
38
00
00
00
ENDCHAR
STARTCHAR U+0056
ENCODING 86
SWIDTH 8000 0
DWIDTH 8 0
BBX 8 16 0
BITMAP
00
00
00
00
44
44
44
44
44
44
44
28
10
00
00
00
ENDCHAR
STARTCHAR U+0057
ENCODING 87
SWIDTH 8000 0
DWIDTH 8 0
BBX 8 16 0
BITMAP
00
00
00
00
44
44
44
54
54
54
54
6C
44
00
00
00
ENDCHAR
STARTCHAR U+0058
ENCODING 88
SWIDTH 8000 0
DWIDTH 8 0
BBX 8 16 0
BITMAP
00
00
00
00
44
44
44
28
10
28
44
44
44
00
00
00
ENDCHAR
STARTCHAR U+0059
ENCODING 89
SWIDTH 8000 0
DWIDTH 8 0
BBX 8 16 0
BITMAP
00
00
00
00
44
44
44
44
28
10
10
10
10
00
00
00
ENDCHAR
STARTCHAR U+005A
ENCODING 90
SWIDTH 8000 0
DWIDTH 8 0
BBX 8 16 0
BITMAP
00
00
00
00
7C
04
08
08
10
20
20
40
7C
00
00
00
ENDCHAR
STARTCHAR U+005B
ENCODING 91
SWIDTH 8000 0
DWIDTH 8 0
BBX 8 16 0
BITMAP
00
00
00
00
78
40
40
40
40
40
40
40
78
00
00
00
ENDCHAR
STARTCHAR U+005C
ENCODING 92
SWIDTH 8000 0
DWIDTH 8 0
BBX 8 16 0
BITMAP
00
00
00
00
40
40
20
20
10
08
08
04
04
00
00
00
ENDCHAR
STARTCHAR U+005D
ENCODING 93
SWIDTH 8000 0
DWIDTH 8 0
BBX 8 16 0
BITMAP
00
00
00
00
3C
04
04
04
04
04
04
04
3C
00
00
00
ENDCHAR
STARTCHAR U+005E
ENCODING 94
SWIDTH 8000 0
DWIDTH 8 0
BBX 8 16 0
BITMAP
00
00
00
00
00
10
28
44
00
00
00
00
00
00
00
00
ENDCHAR
STARTCHAR U+005F
ENCODING 95
SWIDTH 8000 0
DWIDTH 8 0
BBX 8 16 0
BITMAP
00
00
00
00
00
00
00
00
00
00
00
00
00
7C
00
00
ENDCHAR
STARTCHAR U+0060
ENCODING 96
SWIDTH 8000 0
DWIDTH 8 0
BBX 8 16 0
BITMAP
00
00
00
00
00
20
20
10
00
00
00
00
00
00
00
00
ENDCHAR
STARTCHAR U+0061
ENCODING 97
SWIDTH 8000 0
DWIDTH 8 0
BBX 8 16 0
BITMAP
00
00
00
00
00
00
00
3C
04
3C
44
44
3A
00
00
00
ENDCHAR
STARTCHAR U+0062
ENCODING 98
SWIDTH 8000 0
DWIDTH 8 0
BBX 8 16 0
BITMAP
00
00
00
00
40
40
40
58
64
44
44
44
78
00
00
00
ENDCHAR
STARTCHAR U+0063
ENCODING 99
SWIDTH 8000 0
DWIDTH 8 0
BBX 8 16 0
BITMAP
00
00
00
00
00
00
00
38
44
40
40
44
38
00
00
00
ENDCHAR
STARTCHAR U+0064
ENCODING 100
SWIDTH 8000 0
DWIDTH 8 0
BBX 8 16 0
BITMAP
00
00
00
00
04
04
04
34
4C
44
44
44
3C
00
00
00
ENDCHAR
STARTCHAR U+0065
ENCODING 101
SWIDTH 8000 0
DWIDTH 8 0
BBX 8 16 0
BITMAP
00
00
00
00
00
00
00
38
44
7C
40
44
38
00
00
00
ENDCHAR
STARTCHAR U+0066
ENCODING 102
SWIDTH 8000 0
DWIDTH 8 0
BBX 8 16 0
BITMAP
00
00
00
00
18
24
20
78
20
20
20
20
20
00
00
00
ENDCHAR
STARTCHAR U+0067
ENCODING 103
SWIDTH 8000 0
DWIDTH 8 0
BBX 8 16 0
BITMAP
00
00
00
00
00
00
00
34
4C
44
44
3C
04
44
38
00
ENDCHAR
STARTCHAR U+0068
ENCODING 104
SWIDTH 8000 0
DWIDTH 8 0
BBX 8 16 0
BITMAP
00
00
00
00
40
40
40
58
64
44
44
44
44
00
00
00
ENDCHAR
STARTCHAR U+0069
ENCODING 105
SWIDTH 8000 0
DWIDTH 8 0
BBX 8 16 0
BITMAP
00
00
00
00
00
10
00
30
10
10
10
10
38
00
00
00
ENDCHAR
STARTCHAR U+006A
ENCODING 106
SWIDTH 8000 0
DWIDTH 8 0
BBX 8 16 0
BITMAP
00
00
00
00
00
08
00
18
08
08
08
08
48
48
30
00
ENDCHAR
STARTCHAR U+006B
ENCODING 107
SWIDTH 8000 0
DWIDTH 8 0
BBX 8 16 0
BITMAP
00
00
00
00
40
40
40
44
48
50
68
48
44
00
00
00
ENDCHAR
STARTCHAR U+006C
ENCODING 108
SWIDTH 8000 0
DWIDTH 8 0
BBX 8 16 0
BITMAP
00
00
00
00
30
10
10
10
10
10
10
10
38
00
00
00
ENDCHAR
STARTCHAR U+006D
ENCODING 109
SWIDTH 8000 0
DWIDTH 8 0
BBX 8 16 0
BITMAP
00
00
00
00
00
00
00
68
54
54
54
54
54
00
00
00
ENDCHAR
STARTCHAR U+006E
ENCODING 110
SWIDTH 8000 0
DWIDTH 8 0
BBX 8 16 0
BITMAP
00
00
00
00
00
00
00
58
64
44
44
44
44
00
00
00
ENDCHAR
STARTCHAR U+006F
ENCODING 111
SWIDTH 8000 0
DWIDTH 8 0
BBX 8 16 0
BITMAP
00
00
00
00
00
00
00
38
44
44
44
44
38
00
00
00
ENDCHAR
STARTCHAR U+0070
ENCODING 112
SWIDTH 8000 0
DWIDTH 8 0
BBX 8 16 0
BITMAP
00
00
00
00
00
00
00
58
64
44
44
44
78
40
40
00
ENDCHAR
STARTCHAR U+0071
ENCODING 113
SWIDTH 8000 0
DWIDTH 8 0
BBX 8 16 0
BITMAP
00
00
00
00
00
00
00
3C
44
44
44
4C
34
04
04
00
ENDCHAR
STARTCHAR U+0072
ENCODING 114
SWIDTH 8000 0
DWIDTH 8 0
BBX 8 16 0
BITMAP
00
00
00
00
00
00
00
58
64
40
40
40
40
00
00
00
ENDCHAR
STARTCHAR U+0073
ENCODING 115
SWIDTH 8000 0
DWIDTH 8 0
BBX 8 16 0
BITMAP
00
00
00
00
00
00
00
38
44
20
18
44
38
00
00
00
ENDCHAR
STARTCHAR U+0074
ENCODING 116
SWIDTH 8000 0
DWIDTH 8 0
BBX 8 16 0
BITMAP
00
00
00
00
00
00
20
78
20
20
20
24
18
00
00
00
ENDCHAR
STARTCHAR U+0075
ENCODING 117
SWIDTH 8000 0
DWIDTH 8 0
BBX 8 16 0
BITMAP
00
00
00
00
00
00
00
44
44
44
44
44
38
00
00
00
ENDCHAR
STARTCHAR U+0076
ENCODING 118
SWIDTH 8000 0
DWIDTH 8 0
BBX 8 16 0
BITMAP
00
00
00
00
00
00
00
44
44
44
44
28
10
00
00
00
ENDCHAR
STARTCHAR U+0077
ENCODING 119
SWIDTH 8000 0
DWIDTH 8 0
BBX 8 16 0
BITMAP
00
00
00
00
00
00
00
44
54
54
54
54
28
00
00
00
ENDCHAR
STARTCHAR U+0078
ENCODING 120
SWIDTH 8000 0
DWIDTH 8 0
BBX 8 16 0
BITMAP
00
00
00
00
00
00
00
44
28
10
10
28
44
00
00
00
ENDCHAR
STARTCHAR U+0079
ENCODING 121
SWIDTH 8000 0
DWIDTH 8 0
BBX 8 16 0
BITMAP
00
00
00
00
00
00
00
44
44
44
44
3C
04
44
38
00
ENDCHAR
STARTCHAR U+007A
ENCODING 122
SWIDTH 8000 0
DWIDTH 8 0
BBX 8 16 0
BITMAP
00
00
00
00
00
00
00
7C
08
10
10
20
7C
00
00
00
ENDCHAR
STARTCHAR U+007B
ENCODING 123
SWIDTH 8000 0
DWIDTH 8 0
BBX 8 16 0
BITMAP
00
00
00
00
00
1C
20
20
20
60
20
20
20
1C
00
00
ENDCHAR
STARTCHAR U+007C
ENCODING 124
SWIDTH 8000 0
DWIDTH 8 0
BBX 8 16 0
BITMAP
00
00
00
00
00
10
10
10
00
00
10
10
10
00
00
00
ENDCHAR
STARTCHAR U+007D
ENCODING 125
SWIDTH 8000 0
DWIDTH 8 0
BBX 8 16 0
BITMAP
00
00
00
00
00
70
08
08
08
0C
08
08
08
70
00
00
ENDCHAR
STARTCHAR U+007E
ENCODING 126
SWIDTH 8000 0
DWIDTH 8 0
BBX 8 16 0
BITMAP
00
00
00
00
00
20
54
08
00
00
00
00
00
00
00
00
ENDCHAR
STARTCHAR U+2302
ENCODING 8962
SWIDTH 8000 0
DWIDTH 8 0
BBX 8 16 0
BITMAP
00
00
00
00
00
48
10
24
48
10
24
48
10
24
00
00
ENDCHAR
STARTCHAR U+0000
ENCODING 0
SWIDTH 8000 0
DWIDTH 8 0
BBX 8 16 0
BITMAP
00
00
00
00
00
00
00
00
00
7C
00
04
00
04
00
00
ENDCHAR
STARTCHAR U+263A
ENCODING 9786
SWIDTH 8000 0
DWIDTH 8 0
BBX 8 16 0
BITMAP
00
10
00
20
00
C0
00
00
00
00
00
00
00
00
00
08
ENDCHAR
STARTCHAR U+263B
ENCODING 9787
SWIDTH 8000 0
DWIDTH 8 0
BBX 8 16 0
BITMAP
00
00
00
00
00
00
00
00
00
FE
00
22
00
22
00
00
ENDCHAR
STARTCHAR U+2665
ENCODING 9829
SWIDTH 8000 0
DWIDTH 8 0
BBX 8 16 0
BITMAP
00
44
00
88
00
10
00
00
00
00
00
00
00
00
00
44
ENDCHAR
STARTCHAR U+2666
ENCODING 9830
SWIDTH 8000 0
DWIDTH 8 0
BBX 8 16 0
BITMAP
00
00
00
00
00
00
00
00
00
80
00
40
00
40
00
00
ENDCHAR
STARTCHAR U+2663
ENCODING 9827
SWIDTH 8000 0
DWIDTH 8 0
BBX 8 16 0
BITMAP
00
46
00
78
00
00
00
00
00
00
00
00
00
00
00
40
ENDCHAR
STARTCHAR U+2660
ENCODING 9824
SWIDTH 8000 0
DWIDTH 8 0
BBX 8 16 0
BITMAP
00
00
00
00
00
00
00
00
00
00
00
FC
00
40
00
00
ENDCHAR
STARTCHAR U+2022
ENCODING 8226
SWIDTH 8000 0
DWIDTH 8 0
BBX 8 16 0
BITMAP
00
40
00
46
00
78
00
00
00
00
00
00
00
00
00
40
ENDCHAR
STARTCHAR U+25D8
ENCODING 9688
SWIDTH 8000 0
DWIDTH 8 0
BBX 8 16 0
BITMAP
00
00
00
00
00
00
00
00
00
00
00
FE
00
48
00
00
ENDCHAR
STARTCHAR U+25CB
ENCODING 9675
SWIDTH 8000 0
DWIDTH 8 0
BBX 8 16 0
BITMAP
00
48
00
48
00
7E
00
00
00
00
00
00
00
00
00
48
ENDCHAR
STARTCHAR U+25D9
ENCODING 9689
SWIDTH 8000 0
DWIDTH 8 0
BBX 8 16 0
BITMAP
00
00
00
00
00
00
00
00
00
7E
00
02
00
02
00
00
ENDCHAR
STARTCHAR U+2642
ENCODING 9794
SWIDTH 8000 0
DWIDTH 8 0
BBX 8 16 0
BITMAP
00
40
00
46
00
78
00
00
00
00
00
00
00
00
00
7E
ENDCHAR
STARTCHAR U+2640
ENCODING 9792
SWIDTH 8000 0
DWIDTH 8 0
BBX 8 16 0
BITMAP
00
00
00
00
00
00
00
80
00
7E
00
42
00
42
00
00
ENDCHAR
STARTCHAR U+266A
ENCODING 9834
SWIDTH 8000 0
DWIDTH 8 0
BBX 8 16 0
BITMAP
00
42
00
7E
00
00
00
00
00
00
00
00
00
00
00
42
ENDCHAR
STARTCHAR U+266B
ENCODING 9835
SWIDTH 8000 0
DWIDTH 8 0
BBX 8 16 0
BITMAP
00
00
00
00
00
00
00
02
00
82
00
42
00
42
00
00
ENDCHAR
STARTCHAR U+263C
ENCODING 9788
SWIDTH 8000 0
DWIDTH 8 0
BBX 8 16 0
BITMAP
00
42
00
7E
00
00
00
00
00
00
00
00
00
00
00
7E
ENDCHAR
STARTCHAR U+F600
ENCODING 62976
SWIDTH 16000 0
DWIDTH 16 0
BBX 16 16 0
BITMAP
0000
0000
0000
0000
0000
0000
0000
0000
0000
0000
0000
0000
0000
0000
0000
0000
ENDCHAR
STARTCHAR U+F601
ENCODING 62977
SWIDTH 16000 0
DWIDTH 16 0
BBX 16 16 0
BITMAP
0000
0020
0010
0010
0010
0010
0010
0010
001C
0010
0010
0010
0010
0010
0010
0000
ENDCHAR
STARTCHAR U+F602
ENCODING 62978
SWIDTH 16000 0
DWIDTH 16 0
BBX 16 16 0
BITMAP
0000
0010
0048
0028
0028
0028
0028
0038
0028
0028
0028
0028
0028
0008
0008
0000
ENDCHAR
STARTCHAR U+F603
ENCODING 62979
SWIDTH 16000 0
DWIDTH 16 0
BBX 16 16 0
BITMAP
0000
0020
0010
0010
0010
0010
0010
0010
0010
0010
0010
0010
0010
0010
0010
0000
ENDCHAR
STARTCHAR U+F604
ENCODING 62980
SWIDTH 16000 0
DWIDTH 16 0
BBX 16 16 0
BITMAP
0000
0010
0008
0008
0008
0008
0008
0038
0008
0008
0008
0008
0008
0008
0008
0000
ENDCHAR
STARTCHAR U+F605
ENCODING 62981
SWIDTH 16000 0
DWIDTH 16 0
BBX 16 16 0
BITMAP
0000
0008
0024
0014
0014
0014
0014
0074
0014
0014
0014
0014
0014
0004
0004
0000
ENDCHAR
STARTCHAR U+F606
ENCODING 62982
SWIDTH 16000 0
DWIDTH 16 0
BBX 16 16 0
BITMAP
0000
0020
0010
0010
0010
0010
001C
0010
0010
001C
0010
0010
0010
0010
0010
0000
ENDCHAR
STARTCHAR U+F607
ENCODING 62983
SWIDTH 16000 0
DWIDTH 16 0
BBX 16 16 0
BITMAP
0000
0010
0008
0008
0008
0008
0038
0008
0008
0038
0008
0008
0008
0008
0008
0000
ENDCHAR
STARTCHAR U+F608
ENCODING 62984
SWIDTH 16000 0
DWIDTH 16 0
BBX 16 16 0
BITMAP
0000
0010
0048
0028
0028
0028
0038
0028
0028
0038
0028
0028
0028
0008
0008
0000
ENDCHAR
STARTCHAR U+F609
ENCODING 62985
SWIDTH 16000 0
DWIDTH 16 0
BBX 16 16 0
BITMAP
0000
0008
0024
0014
0014
0014
0074
0014
0074
0014
0014
0014
0014
0004
0004
0000
ENDCHAR
STARTCHAR U+F60A
ENCODING 62986
SWIDTH 16000 0
DWIDTH 16 0
BBX 16 16 0
BITMAP
0000
0000
0000
0000
0000
0000
0000
0000
0000
0080
0080
3FFC
0000
0000
0000
0000
ENDCHAR
STARTCHAR U+F60B
ENCODING 62987
SWIDTH 16000 0
DWIDTH 16 0
BBX 16 16 0
BITMAP
0000
0000
0000
0000
0000
0000
0000
0000
0000
0240
0240
3FFC
0000
0000
0000
0000
ENDCHAR
STARTCHAR U+F60C
ENCODING 62988
SWIDTH 16000 0
DWIDTH 16 0
BBX 16 16 0
BITMAP
0000
0000
0000
0000
0000
0000
0000
0000
0000
3FFC
0080
0080
0080
0080
0080
0000
ENDCHAR
STARTCHAR U+F60D
ENCODING 62989
SWIDTH 16000 0
DWIDTH 16 0
BBX 16 16 0
BITMAP
0000
0000
0000
0000
0000
0000
0000
0000
0000
3FFC
0240
0240
0240
0440
0040
0000
ENDCHAR
STARTCHAR U+F60E
ENCODING 62990
SWIDTH 16000 0
DWIDTH 16 0
BBX 16 16 0
BITMAP
0000
0000
0000
0000
0000
0000
0000
0000
0000
0000
1FFC
0000
0000
0000
0000
0000
ENDCHAR
STARTCHAR U+F60F
ENCODING 62991
SWIDTH 16000 0
DWIDTH 16 0
BBX 16 16 0
BITMAP
0000
0020
0010
0010
0010
0010
0010
0010
041C
0410
3FD0
0010
0010
0010
0010
0000
ENDCHAR
STARTCHAR U+F610
ENCODING 62992
SWIDTH 16000 0
DWIDTH 16 0
BBX 16 16 0
BITMAP
0000
0010
0048
0028
0028
0028
0028
0038
0428
0428
3FA8
0028
0028
0008
0008
0000
ENDCHAR
STARTCHAR U+F611
ENCODING 62993
SWIDTH 16000 0
DWIDTH 16 0
BBX 16 16 0
BITMAP
0000
0020
0010
0010
0010
0010
0010
0010
0410
0410
3FD0
0010
0010
0010
0010
0000
ENDCHAR
STARTCHAR U+F612
ENCODING 62994
SWIDTH 16000 0
DWIDTH 16 0
BBX 16 16 0
BITMAP
0000
0020
0010
0010
0010
0010
0010
0010
0010
3FD0
0210
0210
0210
0410
0010
0000
ENDCHAR
STARTCHAR U+F613
ENCODING 62995
SWIDTH 16000 0
DWIDTH 16 0
BBX 16 16 0
BITMAP
0000
0010
0008
0008
0008
0008
0008
0008
0008
3FE8
0208
0238
0208
0408
0008
0000
ENDCHAR
STARTCHAR U+F614
ENCODING 62996
SWIDTH 16000 0
DWIDTH 16 0
BBX 16 16 0
BITMAP
0000
0010
0048
0028
0028
0028
0028
0028
0028
3FA8
04E8
0428
0428
0828
0008
0000
ENDCHAR
STARTCHAR U+F615
ENCODING 62997
SWIDTH 16000 0
DWIDTH 16 0
BBX 16 16 0
BITMAP
0000
0020
0010
0010
0010
0010
0010
0010
0010
0010
3FD0
0010
0010
0010
0010
0000
ENDCHAR
STARTCHAR U+F616
ENCODING 62998
SWIDTH 16000 0
DWIDTH 16 0
BBX 16 16 0
BITMAP
0000
0020
0010
0010
0010
0010
001C
0010
0010
0000
0000
0000
0000
0000
0000
0000
ENDCHAR
STARTCHAR U+F617
ENCODING 62999
SWIDTH 16000 0
DWIDTH 16 0
BBX 16 16 0
BITMAP
0000
0010
0048
0028
0028
0038
0028
0028
0028
0008
0000
0000
0000
0000
0000
0000
ENDCHAR
STARTCHAR U+F618
ENCODING 63000
SWIDTH 16000 0
DWIDTH 16 0
BBX 16 16 0
BITMAP
0000
0020
0010
0010
0010
0010
0010
0010
0010
0000
0000
0000
0000
0000
0000
0000
ENDCHAR
STARTCHAR U+F619
ENCODING 63001
SWIDTH 16000 0
DWIDTH 16 0
BBX 16 16 0
BITMAP
0000
0010
0008
0008
0008
0008
0038
0008
0008
0000
0000
0000
0000
0000
0000
0000
ENDCHAR
STARTCHAR U+F61A
ENCODING 63002
SWIDTH 16000 0
DWIDTH 16 0
BBX 16 16 0
BITMAP
0000
0010
0048
0028
0028
0028
00E8
0028
0028
0008
0000
0000
0000
0000
0000
0000
ENDCHAR
STARTCHAR U+F61B
ENCODING 63003
SWIDTH 16000 0
DWIDTH 16 0
BBX 16 16 0
BITMAP
0000
0020
0010
0010
001C
0010
001C
0010
0010
0000
0000
0000
0000
0000
0000
0000
ENDCHAR
STARTCHAR U+F61C
ENCODING 63004
SWIDTH 16000 0
DWIDTH 16 0
BBX 16 16 0
BITMAP
0000
0010
0008
0008
0038
0008
0038
0008
0008
0000
0000
0000
0000
0000
0000
0000
ENDCHAR
STARTCHAR U+F61D
ENCODING 63005
SWIDTH 16000 0
DWIDTH 16 0
BBX 16 16 0
BITMAP
0000
0008
0024
0014
001C
0014
001C
0014
0014
0004
0000
0000
0000
0000
0000
0000
ENDCHAR
STARTCHAR U+F61E
ENCODING 63006
SWIDTH 16000 0
DWIDTH 16 0
BBX 16 16 0
BITMAP
0000
0010
0048
0028
0028
0068
0028
0068
0028
0008
0000
0000
0000
0000
0000
0000
ENDCHAR
STARTCHAR U+F61F
ENCODING 63007
SWIDTH 16000 0
DWIDTH 16 0
BBX 16 16 0
BITMAP
0000
0000
0000
0000
0000
0000
0040
0040
3FFC
0000
0000
0000
0000
0000
0000
0000
ENDCHAR
STARTCHAR U+F620
ENCODING 63008
SWIDTH 16000 0
DWIDTH 16 0
BBX 16 16 0
BITMAP
0000
0000
0000
0000
0000
0000
0120
0120
3FFC
0000
0000
0000
0000
0000
0000
0000
ENDCHAR
STARTCHAR U+F621
ENCODING 63009
SWIDTH 16000 0
DWIDTH 16 0
BBX 16 16 0
BITMAP
0000
0000
0000
0000
0000
0000
0000
3FFC
0040
0040
0000
0000
0000
0000
0000
0000
ENDCHAR
STARTCHAR U+F622
ENCODING 63010
SWIDTH 16000 0
DWIDTH 16 0
BBX 16 16 0
BITMAP
0000
0000
0000
0000
0000
0000
0000
3FFC
0120
0220
0000
0000
0000
0000
0000
0000
ENDCHAR
STARTCHAR U+F623
ENCODING 63011
SWIDTH 16000 0
DWIDTH 16 0
BBX 16 16 0
BITMAP
0000
0000
0000
0000
0000
0000
0000
0000
1FFC
0000
0000
0000
0000
0000
0000
0000
ENDCHAR
STARTCHAR U+F624
ENCODING 63012
SWIDTH 16000 0
DWIDTH 16 0
BBX 16 16 0
BITMAP
0000
0020
0010
0010
0010
0010
021C
0210
3FD0
0000
0000
0000
0000
0000
0000
0000
ENDCHAR
STARTCHAR U+F625
ENCODING 63013
SWIDTH 16000 0
DWIDTH 16 0
BBX 16 16 0
BITMAP
0000
0010
0048
0028
0028
0028
0238
0228
1FA8
0008
0000
0000
0000
0000
0000
0000
ENDCHAR
STARTCHAR U+F626
ENCODING 63014
SWIDTH 16000 0
DWIDTH 16 0
BBX 16 16 0
BITMAP
0000
0020
0010
0010
0010
0010
0210
0210
3FD0
0000
0000
0000
0000
0000
0000
0000
ENDCHAR
STARTCHAR U+F627
ENCODING 63015
SWIDTH 16000 0
DWIDTH 16 0
BBX 16 16 0
BITMAP
0000
0020
0010
0010
0010
0010
0010
3FD0
0210
0410
0000
0000
0000
0000
0000
0000
ENDCHAR
STARTCHAR U+F628
ENCODING 63016
SWIDTH 16000 0
DWIDTH 16 0
BBX 16 16 0
BITMAP
0000
0010
0008
0008
0008
0008
0008
3FC8
0238
0408
0000
0000
0000
0000
0000
0000
ENDCHAR
STARTCHAR U+F629
ENCODING 63017
SWIDTH 16000 0
DWIDTH 16 0
BBX 16 16 0
BITMAP
0000
0010
0048
0028
0028
0028
0028
3FA8
04E8
0828
0000
0000
0000
0000
0000
0000
ENDCHAR
STARTCHAR U+F62A
ENCODING 63018
SWIDTH 16000 0
DWIDTH 16 0
BBX 16 16 0
BITMAP
0000
0020
0010
0010
0010
0010
0010
0010
3FD0
0000
0000
0000
0000
0000
0000
0000
ENDCHAR
STARTCHAR U+F62B
ENCODING 63019
SWIDTH 16000 0
DWIDTH 16 0
BBX 16 16 0
BITMAP
0000
0000
0000
0000
1F00
0100
0100
0200
0400
0800
3000
0000
0000
0000
0000
0000
ENDCHAR
STARTCHAR U+F62C
ENCODING 63020
SWIDTH 16000 0
DWIDTH 16 0
BBX 16 16 0
BITMAP
0000
0000
0000
0000
1F00
1100
1100
1100
1100
1100
1F00
0000
0000
0000
0000
0000
ENDCHAR
STARTCHAR U+F62D
ENCODING 63021
SWIDTH 16000 0
DWIDTH 16 0
BBX 16 16 0
BITMAP
0000
0000
0000
0000
1100
1100
1100
1F00
1100
1100
1F00
0000
0000
0000
0000
0000
ENDCHAR
STARTCHAR U+F62E
ENCODING 63022
SWIDTH 16000 0
DWIDTH 16 0
BBX 16 16 0
BITMAP
0000
0000
0000
0000
0200
0200
0400
0A00
1100
2100
0000
0000
0000
0000
0000
0000
ENDCHAR
STARTCHAR U+F62F
ENCODING 63023
SWIDTH 16000 0
DWIDTH 16 0
BBX 16 16 0
BITMAP
0000
0000
0000
0000
1F00
1000
1000
1F00
1000
1000
1F00
0000
0000
0000
0000
0000
ENDCHAR
STARTCHAR U+F630
ENCODING 63024
SWIDTH 16000 0
DWIDTH 16 0
BBX 16 16 0
BITMAP
0000
0000
0000
0000
1F80
0900
0900
0900
0900
0900
1F80
0000
0000
0000
0000
0000
ENDCHAR
STARTCHAR U+F631
ENCODING 63025
SWIDTH 16000 0
DWIDTH 16 0
BBX 16 16 0
BITMAP
0000
0000
0000
0E00
0000
1F00
0000
0E00
1100
1100
0E00
0000
0000
0000
0000
0000
ENDCHAR
STARTCHAR U+F632
ENCODING 63026
SWIDTH 16000 0
DWIDTH 16 0
BBX 16 16 0
BITMAP
0000
0000
0000
0000
1F00
0200
0200
0400
0A00
1100
2100
0000
0000
0000
0000
0000
ENDCHAR
STARTCHAR U+F633
ENCODING 63027
SWIDTH 16000 0
DWIDTH 16 0
BBX 16 16 0
BITMAP
0000
0000
0000
0000
0800
0800
0800
0800
0800
0800
0F80
0000
0000
0000
0000
0000
ENDCHAR
STARTCHAR U+F634
ENCODING 63028
SWIDTH 16000 0
DWIDTH 16 0
BBX 16 16 0
BITMAP
0000
0000
0000
0000
1F00
1000
1000
1000
1000
1000
1F00
0000
0000
0000
0000
0000
ENDCHAR
STARTCHAR U+F635
ENCODING 63029
SWIDTH 16000 0
DWIDTH 16 0
BBX 16 16 0
BITMAP
0000
0000
0000
0000
1F00
0100
0100
1F00
1000
1000
1F00
0000
0000
0000
0000
0000
ENDCHAR
STARTCHAR U+F636
ENCODING 63030
SWIDTH 16000 0
DWIDTH 16 0
BBX 16 16 0
BITMAP
0000
0000
0000
0000
0E00
1100
1100
1100
1100
1100
0E00
0000
0000
0000
0000
0000
ENDCHAR
STARTCHAR U+F637
ENCODING 63031
SWIDTH 16000 0
DWIDTH 16 0
BBX 16 16 0
BITMAP
0000
0000
0000
0600
0000
1F00
0200
0400
0A00
1100
2100
0000
0000
0000
0000
0000
ENDCHAR
STARTCHAR U+F638
ENCODING 63032
SWIDTH 16000 0
DWIDTH 16 0
BBX 16 16 0
BITMAP
0000
0000
0000
0000
1F00
0100
0100
1E00
0400
0800
3000
0000
0000
0000
0000
0000
ENDCHAR
STARTCHAR U+F639
ENCODING 63033
SWIDTH 16000 0
DWIDTH 16 0
BBX 16 16 0
BITMAP
0000
0000
0000
0000
3B80
0880
0880
1100
2200
0400
0000
0000
0000
0000
0000
0000
ENDCHAR
STARTCHAR U+F63A
ENCODING 63034
SWIDTH 16000 0
DWIDTH 16 0
BBX 16 16 0
BITMAP
0000
0000
0000
0000
0900
0900
1100
2A00
0500
0880
1080
0000
0000
0000
0000
0000
ENDCHAR
STARTCHAR U+F63B
ENCODING 63035
SWIDTH 16000 0
DWIDTH 16 0
BBX 16 16 0
BITMAP
0000
0000
0000
0000
3B80
2200
2200
2200
2200
2200
3B80
0000
0000
0000
0000
0000
ENDCHAR
STARTCHAR U+F63C
ENCODING 63036
SWIDTH 16000 0
DWIDTH 16 0
BBX 16 16 0
BITMAP
0000
0000
0000
0000
2A80
2A80
2A80
3B80
2A80
2A80
3B80
0000
0000
0000
0000
0000
ENDCHAR
STARTCHAR U+F63D
ENCODING 63037
SWIDTH 16000 0
DWIDTH 16 0
BBX 16 16 0
BITMAP
0000
0000
0000
0000
3B80
1100
1100
2A00
0500
0880
0000
0000
0000
0000
0000
0000
ENDCHAR
STARTCHAR U+F63E
ENCODING 63038
SWIDTH 16000 0
DWIDTH 16 0
BBX 16 16 0
BITMAP
0000
0000
0000
07F0
0010
0010
0010
0010
0000
0000
0000
0000
0000
0000
0000
0000
ENDCHAR
STARTCHAR U+F63F
ENCODING 63039
SWIDTH 16000 0
DWIDTH 16 0
BBX 16 16 0
BITMAP
0000
0000
0000
07E0
0420
0420
0420
07E0
0000
0000
0000
0000
0000
0000
0000
0000
ENDCHAR
STARTCHAR U+F640
ENCODING 63040
SWIDTH 16000 0
DWIDTH 16 0
BBX 16 16 0
BITMAP
0000
0000
0000
0420
0420
07E0
0420
07E0
0000
0000
0000
0000
0000
0000
0000
0000
ENDCHAR
STARTCHAR U+F641
ENCODING 63041
SWIDTH 16000 0
DWIDTH 16 0
BBX 16 16 0
BITMAP
0000
0000
0080
0080
0080
0140
0220
0C10
0000
0000
0000
0000
0000
0000
0000
0000
ENDCHAR
STARTCHAR U+F642
ENCODING 63042
SWIDTH 16000 0
DWIDTH 16 0
BBX 16 16 0
BITMAP
0000
0000
07E0
0400
07E0
0400
07E0
0000
0000
0000
0000
0000
0000
0000
0000
0000
ENDCHAR
STARTCHAR U+F643
ENCODING 63043
SWIDTH 16000 0
DWIDTH 16 0
BBX 16 16 0
BITMAP
0000
0000
0000
07E0
0240
0240
0240
07E0
0000
0000
0000
0000
0000
0000
0000
0000
ENDCHAR
STARTCHAR U+F644
ENCODING 63044
SWIDTH 16000 0
DWIDTH 16 0
BBX 16 16 0
BITMAP
0000
0180
07E0
0000
03C0
0420
0420
03C0
0000
0000
0000
0000
0000
0000
0000
0000
ENDCHAR
STARTCHAR U+F645
ENCODING 63045
SWIDTH 16000 0
DWIDTH 16 0
BBX 16 16 0
BITMAP
0000
0000
0000
07E0
0080
0140
0220
0C10
0000
0000
0000
0000
0000
0000
0000
0000
ENDCHAR
STARTCHAR U+F646
ENCODING 63046
SWIDTH 16000 0
DWIDTH 16 0
BBX 16 16 0
BITMAP
0000
0000
0000
0400
0400
0400
0400
07E0
0000
0000
0000
0000
0000
0000
0000
0000
ENDCHAR
STARTCHAR U+F647
ENCODING 63047
SWIDTH 16000 0
DWIDTH 16 0
BBX 16 16 0
BITMAP
0000
0000
0000
07E0
0400
0400
0400
07E0
0000
0000
0000
0000
0000
0000
0000
0000
ENDCHAR
STARTCHAR U+F648
ENCODING 63048
SWIDTH 16000 0
DWIDTH 16 0
BBX 16 16 0
BITMAP
0000
0000
0000
07E0
0020
07E0
0400
07E0
0000
0000
0000
0000
0000
0000
0000
0000
ENDCHAR
STARTCHAR U+F649
ENCODING 63049
SWIDTH 16000 0
DWIDTH 16 0
BBX 16 16 0
BITMAP
0000
0000
0000
03C0
0420
0420
0420
03C0
0000
0000
0000
0000
0000
0000
0000
0000
ENDCHAR
STARTCHAR U+F64A
ENCODING 63050
SWIDTH 16000 0
DWIDTH 16 0
BBX 16 16 0
BITMAP
0000
0000
0180
07E0
0080
0140
0220
0C10
0000
0000
0000
0000
0000
0000
0000
0000
ENDCHAR
STARTCHAR U+F64B
ENCODING 63051
SWIDTH 16000 0
DWIDTH 16 0
BBX 16 16 0
BITMAP
0000
0000
0000
07F0
0010
0010
07F0
0010
0000
0000
0000
0000
0000
0000
0000
0000
ENDCHAR
STARTCHAR U+F64C
ENCODING 63052
SWIDTH 16000 0
DWIDTH 16 0
BBX 16 16 0
BITMAP
0000
0000
0000
1EF0
0210
0210
0210
0420
0000
0000
0000
0000
0000
0000
0000
0000
ENDCHAR
STARTCHAR U+F64D
ENCODING 63053
SWIDTH 16000 0
DWIDTH 16 0
BBX 16 16 0
BITMAP
0000
0000
0000
0220
0220
0440
0AA0
1110
0000
0000
0000
0000
0000
0000
0000
0000
ENDCHAR
STARTCHAR U+F64E
ENCODING 63054
SWIDTH 16000 0
DWIDTH 16 0
BBX 16 16 0
BITMAP
0000
0000
0000
0F78
0840
0840
0840
0F78
0000
0000
0000
0000
0000
0000
0000
0000
ENDCHAR
STARTCHAR U+F64F
ENCODING 63055
SWIDTH 16000 0
DWIDTH 16 0
BBX 16 16 0
BITMAP
0000
0000
0000
0948
0948
0F78
0948
0F78
0000
0000
0000
0000
0000
0000
0000
0000
ENDCHAR
STARTCHAR U+F650
ENCODING 63056
SWIDTH 16000 0
DWIDTH 16 0
BBX 16 16 0
BITMAP
0000
0000
0000
0F78
0210
0420
0A50
1088
0000
0000
0000
0000
0000
0000
0000
0000
ENDCHAR
STARTCHAR U+F651
ENCODING 63057
SWIDTH 16000 0
DWIDTH 16 0
BBX 16 16 0
BITMAP
0000
0000
0000
0F80
0080
0080
0080
0080
0000
0000
0000
0000
0000
0000
0000
0000
ENDCHAR
STARTCHAR U+F652
ENCODING 63058
SWIDTH 16000 0
DWIDTH 16 0
BBX 16 16 0
BITMAP
0000
0000
0000
1F00
1100
1100
1100
1F00
0000
0000
0000
0000
0000
0000
0000
0000
ENDCHAR
STARTCHAR U+F653
ENCODING 63059
SWIDTH 16000 0
DWIDTH 16 0
BBX 16 16 0
BITMAP
0000
0000
0000
1100
1100
1F00
1100
1F00
0000
0000
0000
0000
0000
0000
0000
0000
ENDCHAR
STARTCHAR U+F654
ENCODING 63060
SWIDTH 16000 0
DWIDTH 16 0
BBX 16 16 0
BITMAP
0000
0000
0000
0400
0400
0400
0A00
1100
0000
0000
0000
0000
0000
0000
0000
0000
ENDCHAR
STARTCHAR U+F655
ENCODING 63061
SWIDTH 16000 0
DWIDTH 16 0
BBX 16 16 0
BITMAP
0000
0000
0000
1F00
1000
1F00
1000
1F00
0000
0000
0000
0000
0000
0000
0000
0000
ENDCHAR
STARTCHAR U+F656
ENCODING 63062
SWIDTH 16000 0
DWIDTH 16 0
BBX 16 16 0
BITMAP
0000
0000
0000
1F00
0A00
0A00
0A00
1F00
0000
0000
0000
0000
0000
0000
0000
0000
ENDCHAR
STARTCHAR U+F657
ENCODING 63063
SWIDTH 16000 0
DWIDTH 16 0
BBX 16 16 0
BITMAP
0000
0000
0400
1F00
0E00
1100
1100
0E00
0000
0000
0000
0000
0000
0000
0000
0000
ENDCHAR
STARTCHAR U+F658
ENCODING 63064
SWIDTH 16000 0
DWIDTH 16 0
BBX 16 16 0
BITMAP
0000
0000
0000
1F00
0200
0400
0A00
1100
0000
0000
0000
0000
0000
0000
0000
0000
ENDCHAR
STARTCHAR U+F659
ENCODING 63065
SWIDTH 16000 0
DWIDTH 16 0
BBX 16 16 0
BITMAP
0000
0000
0000
1000
1000
1000
1000
1F00
0000
0000
0000
0000
0000
0000
0000
0000
ENDCHAR
STARTCHAR U+F65A
ENCODING 63066
SWIDTH 16000 0
DWIDTH 16 0
BBX 16 16 0
BITMAP
0000
0000
0000
1F00
1000
1000
1000
1F00
0000
0000
0000
0000
0000
0000
0000
0000
ENDCHAR
STARTCHAR U+F65B
ENCODING 63067
SWIDTH 16000 0
DWIDTH 16 0
BBX 16 16 0
BITMAP
0000
0000
0000
1F00
0100
1F00
1000
1F00
0000
0000
0000
0000
0000
0000
0000
0000
ENDCHAR
STARTCHAR U+F65C
ENCODING 63068
SWIDTH 16000 0
DWIDTH 16 0
BBX 16 16 0
BITMAP
0000
0000
0000
0E00
1100
1100
1100
0E00
0000
0000
0000
0000
0000
0000
0000
0000
ENDCHAR
STARTCHAR U+F65D
ENCODING 63069
SWIDTH 16000 0
DWIDTH 16 0
BBX 16 16 0
BITMAP
0000
0000
0400
1F00
0200
0400
0A00
1100
0000
0000
0000
0000
0000
0000
0000
0000
ENDCHAR
STARTCHAR U+F65E
ENCODING 63070
SWIDTH 16000 0
DWIDTH 16 0
BBX 16 16 0
BITMAP
0000
0000
0000
0F80
0080
0F80
0080
0080
0000
0000
0000
0000
0000
0000
0000
0000
ENDCHAR
STARTCHAR U+F65F
ENCODING 63071
SWIDTH 16000 0
DWIDTH 16 0
BBX 16 16 0
BITMAP
0000
0000
0000
3B80
0880
0880
0880
1100
0000
0000
0000
0000
0000
0000
0000
0000
ENDCHAR
STARTCHAR U+F660
ENCODING 63072
SWIDTH 16000 0
DWIDTH 16 0
BBX 16 16 0
BITMAP
0000
0000
0000
0200
0A00
0A00
1500
2880
0000
0000
0000
0000
0000
0000
0000
0000
ENDCHAR
STARTCHAR U+F661
ENCODING 63073
SWIDTH 16000 0
DWIDTH 16 0
BBX 16 16 0
BITMAP
0000
0000
0000
3B80
2200
2200
3B80
0000
0000
0000
0000
0000
0000
0000
0000
0000
ENDCHAR
STARTCHAR U+F662
ENCODING 63074
SWIDTH 16000 0
DWIDTH 16 0
BBX 16 16 0
BITMAP
0000
0000
0000
2A80
3B80
2A80
3B80
0000
0000
0000
0000
0000
0000
0000
0000
0000
ENDCHAR
STARTCHAR U+F663
ENCODING 63075
SWIDTH 16000 0
DWIDTH 16 0
BBX 16 16 0
BITMAP
0000
0000
0000
3B80
0880
1100
2A80
0000
0000
0000
0000
0000
0000
0000
0000
0000
ENDCHAR
STARTCHAR U+F664
ENCODING 63076
SWIDTH 16000 0
DWIDTH 16 0
BBX 16 16 0
BITMAP
0000
0000
0000
0F80
0080
0100
0200
0400
1800
0000
0000
0000
0000
0000
0000
0000
ENDCHAR
STARTCHAR U+F665
ENCODING 63077
SWIDTH 16000 0
DWIDTH 16 0
BBX 16 16 0
BITMAP
0000
0000
0000
1F00
1100
1100
1100
1F00
0000
0000
0000
0000
0000
0000
0000
0000
ENDCHAR
STARTCHAR U+F666
ENCODING 63078
SWIDTH 16000 0
DWIDTH 16 0
BBX 16 16 0
BITMAP
0000
0000
0000
1100
1100
1F00
1100
1F00
0000
0000
0000
0000
0000
0000
0000
0000
ENDCHAR
STARTCHAR U+F667
ENCODING 63079
SWIDTH 16000 0
DWIDTH 16 0
BBX 16 16 0
BITMAP
0000
0000
0000
0200
0200
0200
0400
0A00
1100
0000
0000
0000
0000
0000
0000
0000
ENDCHAR
STARTCHAR U+F668
ENCODING 63080
SWIDTH 16000 0
DWIDTH 16 0
BBX 16 16 0
BITMAP
0000
0000
0000
1F00
1000
1F00
1000
1F00
0000
0000
0000
0000
0000
0000
0000
0000
ENDCHAR
STARTCHAR U+F669
ENCODING 63081
SWIDTH 16000 0
DWIDTH 16 0
BBX 16 16 0
BITMAP
0000
0000
0000
1F00
0A00
0A00
0A00
1F00
0000
0000
0000
0000
0000
0000
0000
0000
ENDCHAR
STARTCHAR U+F66A
ENCODING 63082
SWIDTH 16000 0
DWIDTH 16 0
BBX 16 16 0
BITMAP
0000
0000
0400
1F00
0000
0E00
1100
1100
0E00
0000
0000
0000
0000
0000
0000
0000
ENDCHAR
STARTCHAR U+F66B
ENCODING 63083
SWIDTH 16000 0
DWIDTH 16 0
BBX 16 16 0
BITMAP
0000
0000
0000
0F80
0100
0200
0500
1880
0000
0000
0000
0000
0000
0000
0000
0000
ENDCHAR
STARTCHAR U+F66C
ENCODING 63084
SWIDTH 16000 0
DWIDTH 16 0
BBX 16 16 0
BITMAP
0000
0000
0000
0800
0800
0800
0800
0F80
0000
0000
0000
0000
0000
0000
0000
0000
ENDCHAR
STARTCHAR U+F66D
ENCODING 63085
SWIDTH 16000 0
DWIDTH 16 0
BBX 16 16 0
BITMAP
0000
0000
0000
0F80
0800
0800
0800
0F80
0000
0000
0000
0000
0000
0000
0000
0000
ENDCHAR
STARTCHAR U+F66E
ENCODING 63086
SWIDTH 16000 0
DWIDTH 16 0
BBX 16 16 0
BITMAP
0000
0000
0000
0F80
0080
0F80
0800
0F80
0000
0000
0000
0000
0000
0000
0000
0000
ENDCHAR
STARTCHAR U+F66F
ENCODING 63087
SWIDTH 16000 0
DWIDTH 16 0
BBX 16 16 0
BITMAP
0000
0000
0000
0700
0880
0880
0880
0700
0000
0000
0000
0000
0000
0000
0000
0000
ENDCHAR
STARTCHAR U+F670
ENCODING 63088
SWIDTH 16000 0
DWIDTH 16 0
BBX 16 16 0
BITMAP
0000
0000
0300
0F80
0100
0200
0500
1880
0000
0000
0000
0000
0000
0000
0000
0000
ENDCHAR
STARTCHAR U+F671
ENCODING 63089
SWIDTH 16000 0
DWIDTH 16 0
BBX 16 16 0
BITMAP
0000
0000
0000
0F80
0080
0F00
0200
0400
1800
0000
0000
0000
0000
0000
0000
0000
ENDCHAR
STARTCHAR U+F672
ENCODING 63090
SWIDTH 16000 0
DWIDTH 16 0
BBX 16 16 0
BITMAP
0000
0000
0000
0000
3B80
0880
1100
2200
0000
0000
0000
0000
0000
0000
0000
0000
ENDCHAR
STARTCHAR U+F673
ENCODING 63091
SWIDTH 16000 0
DWIDTH 16 0
BBX 16 16 0
BITMAP
0000
0000
0000
0900
0900
1100
2A00
0500
0880
0000
0000
0000
0000
0000
0000
0000
ENDCHAR
STARTCHAR U+F674
ENCODING 63092
SWIDTH 16000 0
DWIDTH 16 0
BBX 16 16 0
BITMAP
0000
0000
0000
0000
3B80
2200
2200
2200
3B80
0000
0000
0000
0000
0000
0000
0000
ENDCHAR
STARTCHAR U+F675
ENCODING 63093
SWIDTH 16000 0
DWIDTH 16 0
BBX 16 16 0
BITMAP
0000
0000
0000
2A80
2A80
3B80
2A80
3B80
0000
0000
0000
0000
0000
0000
0000
0000
ENDCHAR
STARTCHAR U+F676
ENCODING 63094
SWIDTH 16000 0
DWIDTH 16 0
BBX 16 16 0
BITMAP
0000
0000
0000
3B80
0880
1100
2A80
0480
0000
0000
0000
0000
0000
0000
0000
0000
ENDCHAR
STARTCHAR U+F677
ENCODING 63095
SWIDTH 16000 0
DWIDTH 16 0
BBX 16 16 0
BITMAP
0000
0000
03F0
0010
0010
0010
0000
0000
0000
0000
0000
0000
0000
0000
0000
0000
ENDCHAR
STARTCHAR U+F678
ENCODING 63096
SWIDTH 16000 0
DWIDTH 16 0
BBX 16 16 0
BITMAP
0000
0000
03F0
0210
0210
03F0
0000
0000
0000
0000
0000
0000
0000
0000
0000
0000
ENDCHAR
STARTCHAR U+F679
ENCODING 63097
SWIDTH 16000 0
DWIDTH 16 0
BBX 16 16 0
BITMAP
0000
0210
0210
03F0
0210
03F0
0000
0000
0000
0000
0000
0000
0000
0000
0000
0000
ENDCHAR
STARTCHAR U+F67A
ENCODING 63098
SWIDTH 16000 0
DWIDTH 16 0
BBX 16 16 0
BITMAP
0000
0040
0040
00A0
0110
0608
0000
0000
0000
0000
0000
0000
0000
0000
0000
0000
ENDCHAR
STARTCHAR U+F67B
ENCODING 63099
SWIDTH 16000 0
DWIDTH 16 0
BBX 16 16 0
BITMAP
0000
03F0
0200
03F0
0200
03F0
0000
0000
0000
0000
0000
0000
0000
0000
0000
0000
ENDCHAR
STARTCHAR U+F67C
ENCODING 63100
SWIDTH 16000 0
DWIDTH 16 0
BBX 16 16 0
BITMAP
0000
03F0
0120
0120
0120
03F0
0000
0000
0000
0000
0000
0000
0000
0000
0000
0000
ENDCHAR
STARTCHAR U+F67D
ENCODING 63101
SWIDTH 16000 0
DWIDTH 16 0
BBX 16 16 0
BITMAP
0000
00C0
03F0
01E0
0210
01E0
0000
0000
0000
0000
0000
0000
0000
0000
0000
0000
ENDCHAR
STARTCHAR U+F67E
ENCODING 63102
SWIDTH 16000 0
DWIDTH 16 0
BBX 16 16 0
BITMAP
0000
03F0
0040
00A0
0110
0608
0000
0000
0000
0000
0000
0000
0000
0000
0000
0000
ENDCHAR
STARTCHAR U+F67F
ENCODING 63103
SWIDTH 16000 0
DWIDTH 16 0
BBX 16 16 0
BITMAP
0000
0000
0200
0200
0200
03F0
0000
0000
0000
0000
0000
0000
0000
0000
0000
0000
ENDCHAR
STARTCHAR U+F680
ENCODING 63104
SWIDTH 16000 0
DWIDTH 16 0
BBX 16 16 0
BITMAP
0000
0000
03F0
0200
0200
03F0
0000
0000
0000
0000
0000
0000
0000
0000
0000
0000
ENDCHAR
STARTCHAR U+F681
ENCODING 63105
SWIDTH 16000 0
DWIDTH 16 0
BBX 16 16 0
BITMAP
0000
03F0
0010
03F0
0200
03F0
0000
0000
0000
0000
0000
0000
0000
0000
0000
0000
ENDCHAR
STARTCHAR U+F682
ENCODING 63106
SWIDTH 16000 0
DWIDTH 16 0
BBX 16 16 0
BITMAP
0000
0000
01E0
0210
0210
01E0
0000
0000
0000
0000
0000
0000
0000
0000
0000
0000
ENDCHAR
STARTCHAR U+F683
ENCODING 63107
SWIDTH 16000 0
DWIDTH 16 0
BBX 16 16 0
BITMAP
0000
0040
03F0
00C0
0120
0210
0000
0000
0000
0000
0000
0000
0000
0000
0000
0000
ENDCHAR
STARTCHAR U+F684
ENCODING 63108
SWIDTH 16000 0
DWIDTH 16 0
BBX 16 16 0
BITMAP
0000
0000
03F0
0010
03F0
0010
0000
0000
0000
0000
0000
0000
0000
0000
0000
0000
ENDCHAR
STARTCHAR U+F685
ENCODING 63109
SWIDTH 16000 0
DWIDTH 16 0
BBX 16 16 0
BITMAP
0000
0000
0F78
0108
0108
0108
0000
0000
0000
0000
0000
0000
0000
0000
0000
0000
ENDCHAR
STARTCHAR U+F686
ENCODING 63110
SWIDTH 16000 0
DWIDTH 16 0
BBX 16 16 0
BITMAP
0000
0110
0110
0220
0550
0888
0000
0000
0000
0000
0000
0000
0000
0000
0000
0000
ENDCHAR
STARTCHAR U+F687
ENCODING 63111
SWIDTH 16000 0
DWIDTH 16 0
BBX 16 16 0
BITMAP
0000
0000
0F78
0840
0840
0F78
0000
0000
0000
0000
0000
0000
0000
0000
0000
0000
ENDCHAR
STARTCHAR U+F688
ENCODING 63112
SWIDTH 16000 0
DWIDTH 16 0
BBX 16 16 0
BITMAP
0000
0000
0948
0F78
0948
0F78
0000
0000
0000
0000
0000
0000
0000
0000
0000
0000
ENDCHAR
STARTCHAR U+F689
ENCODING 63113
SWIDTH 16000 0
DWIDTH 16 0
BBX 16 16 0
BITMAP
0000
0000
0770
0220
0550
0888
0000
0000
0000
0000
0000
0000
0000
0000
0000
0000
ENDCHAR
STARTCHAR U+F68A
ENCODING 63114
SWIDTH 16000 0
DWIDTH 16 0
BBX 16 16 0
BITMAP
0000
0000
0F80
0080
0080
0080
0000
0000
0000
0000
0000
0000
0000
0000
0000
0000
ENDCHAR
STARTCHAR U+F68B
ENCODING 63115
SWIDTH 16000 0
DWIDTH 16 0
BBX 16 16 0
BITMAP
0000
0000
0F80
0880
0880
0F80
0000
0000
0000
0000
0000
0000
0000
0000
0000
0000
ENDCHAR
STARTCHAR U+F68C
ENCODING 63116
SWIDTH 16000 0
DWIDTH 16 0
BBX 16 16 0
BITMAP
0000
0000
0880
0F80
0880
0F80
0000
0000
0000
0000
0000
0000
0000
0000
0000
0000
ENDCHAR
STARTCHAR U+F68D
ENCODING 63117
SWIDTH 16000 0
DWIDTH 16 0
BBX 16 16 0
BITMAP
0000
0000
0200
0200
0500
1880
0000
0000
0000
0000
0000
0000
0000
0000
0000
0000
ENDCHAR
STARTCHAR U+F68E
ENCODING 63118
SWIDTH 16000 0
DWIDTH 16 0
BBX 16 16 0
BITMAP
0000
0000
0F80
0800
0F80
0800
0F80
0000
0000
0000
0000
0000
0000
0000
0000
0000
ENDCHAR
STARTCHAR U+F68F
ENCODING 63119
SWIDTH 16000 0
DWIDTH 16 0
BBX 16 16 0
BITMAP
0000
0000
0F80
0500
0500
0F80
0000
0000
0000
0000
0000
0000
0000
0000
0000
0000
ENDCHAR
STARTCHAR U+F690
ENCODING 63120
SWIDTH 16000 0
DWIDTH 16 0
BBX 16 16 0
BITMAP
0000
0000
0600
0F00
0600
0900
0600
0000
0000
0000
0000
0000
0000
0000
0000
0000
ENDCHAR
STARTCHAR U+F691
ENCODING 63121
SWIDTH 16000 0
DWIDTH 16 0
BBX 16 16 0
BITMAP
0000
0000
0F80
0200
0500
1880
0000
0000
0000
0000
0000
0000
0000
0000
0000
0000
ENDCHAR
STARTCHAR U+F692
ENCODING 63122
SWIDTH 16000 0
DWIDTH 16 0
BBX 16 16 0
BITMAP
0000
0000
0800
0800
0800
0F80
0000
0000
0000
0000
0000
0000
0000
0000
0000
0000
ENDCHAR
STARTCHAR U+F693
ENCODING 63123
SWIDTH 16000 0
DWIDTH 16 0
BBX 16 16 0
BITMAP
0000
0000
0F80
0800
0800
0F80
0000
0000
0000
0000
0000
0000
0000
0000
0000
0000
ENDCHAR
STARTCHAR U+F694
ENCODING 63124
SWIDTH 16000 0
DWIDTH 16 0
BBX 16 16 0
BITMAP
0000
0000
0F80
0080
0F80
0800
0F80
0000
0000
0000
0000
0000
0000
0000
0000
0000
ENDCHAR
STARTCHAR U+F695
ENCODING 63125
SWIDTH 16000 0
DWIDTH 16 0
BBX 16 16 0
BITMAP
0000
0000
0700
0880
0880
0700
0000
0000
0000
0000
0000
0000
0000
0000
0000
0000
ENDCHAR
STARTCHAR U+F696
ENCODING 63126
SWIDTH 16000 0
DWIDTH 16 0
BBX 16 16 0
BITMAP
0000
0000
0200
0F80
0200
0500
0880
0000
0000
0000
0000
0000
0000
0000
0000
0000
ENDCHAR
STARTCHAR U+F697
ENCODING 63127
SWIDTH 16000 0
DWIDTH 16 0
BBX 16 16 0
BITMAP
0000
0000
0000
0F80
0080
0F80
0080
0000
0000
0000
0000
0000
0000
0000
0000
0000
ENDCHAR
STARTCHAR U+F698
ENCODING 63128
SWIDTH 16000 0
DWIDTH 16 0
BBX 16 16 0
BITMAP
0000
0000
0000
1DC0
0440
0440
0000
0000
0000
0000
0000
0000
0000
0000
0000
0000
ENDCHAR
STARTCHAR U+F699
ENCODING 63129
SWIDTH 16000 0
DWIDTH 16 0
BBX 16 16 0
BITMAP
0000
0000
0500
0500
0A80
1440
0000
0000
0000
0000
0000
0000
0000
0000
0000
0000
ENDCHAR
STARTCHAR U+F69A
ENCODING 63130
SWIDTH 16000 0
DWIDTH 16 0
BBX 16 16 0
BITMAP
0000
0000
0000
1DC0
1100
1DC0
0000
0000
0000
0000
0000
0000
0000
0000
0000
0000
ENDCHAR
STARTCHAR U+F69B
ENCODING 63131
SWIDTH 16000 0
DWIDTH 16 0
BBX 16 16 0
BITMAP
0000
0000
1540
1DC0
1540
1DC0
0000
0000
0000
0000
0000
0000
0000
0000
0000
0000
ENDCHAR
STARTCHAR U+F69C
ENCODING 63132
SWIDTH 16000 0
DWIDTH 16 0
BBX 16 16 0
BITMAP
0000
0000
0000
1DC0
0880
1540
0000
0000
0000
0000
0000
0000
0000
0000
0000
0000
ENDCHAR
STARTCHAR U+F69D
ENCODING 63133
SWIDTH 16000 0
DWIDTH 16 0
BBX 16 16 0
BITMAP
0000
0000
0000
0000
0000
0000
0000
0000
0000
0000
03F0
0010
0010
0010
0010
0000
ENDCHAR
STARTCHAR U+F69E
ENCODING 63134
SWIDTH 16000 0
DWIDTH 16 0
BBX 16 16 0
BITMAP
0000
0000
0000
0000
0000
0000
0000
0000
0000
0000
03F0
0210
0210
0210
03F0
0000
ENDCHAR
STARTCHAR U+F69F
ENCODING 63135
SWIDTH 16000 0
DWIDTH 16 0
BBX 16 16 0
BITMAP
0000
0000
0000
0000
0000
0000
0000
0000
0000
0000
0210
0210
03F0
0210
03F0
0000
ENDCHAR
STARTCHAR U+F6A0
ENCODING 63136
SWIDTH 16000 0
DWIDTH 16 0
BBX 16 16 0
BITMAP
0000
0000
0000
0000
0000
0000
0000
0000
0000
0000
0080
0080
0140
0220
0410
0000
ENDCHAR
STARTCHAR U+F6A1
ENCODING 63137
SWIDTH 16000 0
DWIDTH 16 0
BBX 16 16 0
BITMAP
0000
0000
0000
0000
0000
0000
0000
0000
0000
0000
03F0
0200
03F0
0200
03F0
0000
ENDCHAR
STARTCHAR U+F6A2
ENCODING 63138
SWIDTH 16000 0
DWIDTH 16 0
BBX 16 16 0
BITMAP
0000
0000
0000
0000
0000
0000
0000
0000
0000
0000
0000
03F0
0120
0120
03F0
0000
ENDCHAR
STARTCHAR U+F6A3
ENCODING 63139
SWIDTH 16000 0
DWIDTH 16 0
BBX 16 16 0
BITMAP
0000
0000
0000
0000
0000
0000
0000
0000
0000
00C0
03F0
00C0
0120
0120
00C0
0000
ENDCHAR
STARTCHAR U+F6A4
ENCODING 63140
SWIDTH 16000 0
DWIDTH 16 0
BBX 16 16 0
BITMAP
0000
0000
0000
0000
0000
0000
0000
0000
0000
0000
03F0
0040
0040
00A0
0310
0000
ENDCHAR
STARTCHAR U+F6A5
ENCODING 63141
SWIDTH 16000 0
DWIDTH 16 0
BBX 16 16 0
BITMAP
0000
0000
0000
0000
0000
0000
0000
0000
0000
0000
0200
0200
0200
0200
03F0
0000
ENDCHAR
STARTCHAR U+F6A6
ENCODING 63142
SWIDTH 16000 0
DWIDTH 16 0
BBX 16 16 0
BITMAP
0000
0000
0000
0000
0000
0000
0000
0000
0000
0000
03F0
0200
0200
0200
03F0
0000
ENDCHAR
STARTCHAR U+F6A7
ENCODING 63143
SWIDTH 16000 0
DWIDTH 16 0
BBX 16 16 0
BITMAP
0000
0000
0000
0000
0000
0000
0000
0000
0000
0000
03F0
0010
03F0
0200
03F0
0000
ENDCHAR
STARTCHAR U+F6A8
ENCODING 63144
SWIDTH 16000 0
DWIDTH 16 0
BBX 16 16 0
BITMAP
0000
0000
0000
0000
0000
0000
0000
0000
0000
0000
01E0
0210
0210
0210
01E0
0000
ENDCHAR
STARTCHAR U+F6A9
ENCODING 63145
SWIDTH 16000 0
DWIDTH 16 0
BBX 16 16 0
BITMAP
0000
0000
0000
0000
0000
0000
0000
0000
0000
0000
00C0
03F0
0040
00A0
0310
0000
ENDCHAR
STARTCHAR U+F6AA
ENCODING 63146
SWIDTH 16000 0
DWIDTH 16 0
BBX 16 16 0
BITMAP
0000
0000
0000
0000
0000
0000
0000
0000
0000
0000
03F0
0010
03F0
0010
0020
0000
ENDCHAR
STARTCHAR U+F6AB
ENCODING 63147
SWIDTH 16000 0
DWIDTH 16 0
BBX 16 16 0
BITMAP
0000
0000
0000
0000
0000
0000
0000
0000
0000
0000
0770
0110
0110
0110
0110
0000
ENDCHAR
STARTCHAR U+F6AC
ENCODING 63148
SWIDTH 16000 0
DWIDTH 16 0
BBX 16 16 0
BITMAP
0000
0000
0000
0000
0000
0000
0000
0000
0000
0000
0110
0110
0220
0550
0888
0000
ENDCHAR
STARTCHAR U+F6AD
ENCODING 63149
SWIDTH 16000 0
DWIDTH 16 0
BBX 16 16 0
BITMAP
0000
0000
0000
0000
0000
0000
0000
0000
0000
0000
0E40
0240
0240
02A0
0310
0000
ENDCHAR
STARTCHAR U+F6AE
ENCODING 63150
SWIDTH 16000 0
DWIDTH 16 0
BBX 16 16 0
BITMAP
0000
0000
0000
0000
0000
0000
0000
0000
0000
0000
09F0
0840
0840
08A0
0F10
0000
ENDCHAR
STARTCHAR U+F6AF
ENCODING 63151
SWIDTH 16000 0
DWIDTH 16 0
BBX 16 16 0
BITMAP
0000
0000
0000
0000
0000
0000
0000
0000
0000
0000
0860
08F0
0860
0890
0E60
0000
ENDCHAR
STARTCHAR U+F6B0
ENCODING 63152
SWIDTH 16000 0
DWIDTH 16 0
BBX 16 16 0
BITMAP
0000
0000
0000
0000
0000
0000
0000
0000
0000
0000
0EF0
0210
0E10
0810
0E10
0000
ENDCHAR
STARTCHAR U+F6B1
ENCODING 63153
SWIDTH 16000 0
DWIDTH 16 0
BBX 16 16 0
BITMAP
0000
0000
0000
0000
0000
0000
0000
0000
0000
0000
0EF0
0290
0E90
0890
0EF0
0000
ENDCHAR
STARTCHAR U+F6B2
ENCODING 63154
SWIDTH 16000 0
DWIDTH 16 0
BBX 16 16 0
BITMAP
0000
0000
0000
0000
0000
0000
0000
0000
0000
0000
0E90
0290
0EF0
0890
0EF0
0000
ENDCHAR
STARTCHAR U+F6B3
ENCODING 63155
SWIDTH 16000 0
DWIDTH 16 0
BBX 16 16 0
BITMAP
0000
0000
0000
0000
0000
0000
0000
0000
0000
0000
0E40
0240
0E40
08A0
0F10
0000
ENDCHAR
STARTCHAR U+F6B4
ENCODING 63156
SWIDTH 16000 0
DWIDTH 16 0
BBX 16 16 0
BITMAP
0000
0000
0000
0000
0000
0000
0000
0000
0000
0000
0EF0
0280
0EF0
0880
0EF0
0000
ENDCHAR
STARTCHAR U+F6B5
ENCODING 63157
SWIDTH 16000 0
DWIDTH 16 0
BBX 16 16 0
BITMAP
0000
0000
0000
0000
0000
0000
0000
0000
0000
0000
0EF8
0250
0E50
0850
0EF8
0000
ENDCHAR
STARTCHAR U+F6B6
ENCODING 63158
SWIDTH 16000 0
DWIDTH 16 0
BBX 16 16 0
BITMAP
0000
0000
0000
0000
0000
0000
0000
0000
0000
0000
0E60
02F0
0E60
0890
0E60
0000
ENDCHAR
STARTCHAR U+F6B7
ENCODING 63159
SWIDTH 16000 0
DWIDTH 16 0
BBX 16 16 0
BITMAP
0000
0000
0000
0000
0000
0000
0000
0000
0000
0000
0A20
0A20
0E20
0A50
0E88
0000
ENDCHAR
ENDFONT
